<?xml version="1.0" encoding="UTF-8" standalone="no"?>
<!DOCTYPE svg PUBLIC "-//W3C//DTD SVG 1.1//EN" "http://www.w3.org/Graphics/SVG/1.1/DTD/svg11.dtd">
<svg xmlns="http://www.w3.org/2000/svg" version="1.1" viewBox="0.00 0.00 548.00 328.00">
<g stroke-width="2.00" fill="none" stroke-linecap="butt">
<path stroke="#9492af" vector-effect="non-scaling-stroke" d="
  M 172.60 116.35
  Q 178.35 122.05 184.34 127.56
  C 187.66 130.61 190.73 131.32 195.00 131.35
  Q 229.38 131.61 263.75 131.26
  C 276.17 131.13 286.88 130.32 294.34 139.34
  C 299.10 145.08 298.32 152.81 293.16 158.04
  Q 286.61 164.67 276.01 164.72
  Q 248.63 164.84 221.15 164.76
  A 0.33 0.32 -15.8 0 0 220.87 165.25
  Q 223.59 169.56 227.84 172.20
  Q 230.11 173.61 231.40 175.16
  Q 242.10 187.99 254.73 198.89
  C 265.88 208.51 277.81 220.52 284.97 228.28
  Q 292.95 236.93 299.11 242.10
  C 302.30 244.78 305.81 246.05 309.75 246.05
  Q 333.67 246.05 357.95 246.01
  A 1.07 1.07 0.0 0 0 358.71 244.19
  L 349.48 234.80
  Q 349.10 234.40 348.56 234.27
  C 344.58 233.26 343.21 231.14 340.50 228.45
  Q 329.48 217.54 318.54 206.52
  C 315.64 203.60 310.23 199.44 306.80 194.88
  Q 306.44 194.40 306.96 194.10
  C 310.74 191.94 315.43 190.66 318.65 188.50
  C 325.07 184.22 332.79 178.17 335.93 170.91
  C 343.13 154.19 342.42 134.96 332.73 119.53
  C 331.47 117.53 328.88 116.47 327.21 114.53
  Q 319.50 105.51 308.32 101.64"
/>
<path stroke="#838383" vector-effect="non-scaling-stroke" d="
  M 308.32 101.64
  C 295.20 97.26 283.85 95.98 268.74 95.99
  Q 214.49 96.02 160.25 95.87
  Q 155.49 95.85 150.88 96.13
  A 0.39 0.39 0.0 0 0 150.66 96.83
  Q 152.52 98.33 154.21 100.12
  Q 155.95 101.96 157.86 103.24
  Q 166.08 108.70 172.60 116.35"
/>
<path stroke="#181633" vector-effect="non-scaling-stroke" d="
  M 308.32 101.64
  Q 307.53 103.13 305.47 101.90
  Q 305.05 101.64 304.55 101.64
  L 300.77 101.63
  Q 300.34 101.62 300.00 101.37
  C 296.07 98.43 290.82 99.43 285.82 98.96
  Q 285.74 98.96 279.23 97.97
  C 273.91 97.16 268.14 97.73 262.76 97.87
  Q 258.41 97.99 253.25 97.86
  C 230.44 97.28 210.29 98.36 190.10 97.81
  C 178.58 97.50 167.86 98.23 156.73 98.47
  A 0.69 0.69 0.0 0 0 156.40 99.76
  Q 160.74 102.27 164.30 104.89
  Q 165.90 106.07 167.83 108.69
  Q 170.04 111.68 173.11 113.88
  Q 173.45 114.12 173.56 114.53
  L 173.74 115.26
  Q 173.85 115.72 173.44 115.93
  L 172.60 116.35"
/>
<path stroke="#838383" vector-effect="non-scaling-stroke" d="
  M 177.69 272.66
  L 179.16 268.32
  Q 179.37 267.70 180.02 267.75
  C 183.87 268.03 187.51 267.75 188.24 272.67
  Q 188.31 273.20 187.88 273.53
  L 186.00 274.94
  A 0.59 0.59 0.0 0 0 186.36 276.00
  L 195.52 275.94
  A 0.67 0.67 0.0 0 0 195.79 274.65
  L 193.68 273.69
  Q 193.16 273.46 192.94 272.93
  L 185.40 254.91
  A 1.56 1.56 0.0 0 0 182.51 254.93
  L 175.33 272.74
  A 2.19 2.19 0.0 0 1 171.50 273.16
  L 166.27 265.56
  Q 165.90 265.02 166.42 264.61
  C 168.66 262.89 170.98 260.51 170.55 257.54
  Q 170.06 254.16 165.76 253.99
  Q 160.01 253.77 153.35 254.16
  A 0.62 0.62 0.0 0 0 153.23 255.38
  L 155.23 255.90
  Q 155.85 256.06 155.86 256.71
  L 155.93 273.03
  Q 155.93 273.70 155.34 274.02
  L 153.99 274.75
  A 0.39 0.39 0.0 0 0 154.08 275.47
  Q 158.56 276.55 163.11 275.61
  A 0.43 0.42 50.1 0 0 163.18 274.80
  L 160.62 273.77
  A 0.68 0.66 11.1 0 1 160.19 273.15
  L 160.15 256.58
  Q 160.14 256.02 160.70 256.09
  L 165.19 256.67
  Q 165.90 256.76 166.00 257.46
  Q 166.85 262.96 161.82 264.53
  A 0.46 0.46 0.0 0 0 161.59 265.24
  Q 164.57 269.16 166.89 273.55
  C 167.76 275.19 168.68 275.97 170.50 275.95
  Q 174.94 275.90 179.34 276.02
  A 0.76 0.76 0.0 0 0 179.80 274.63
  L 177.90 273.30
  A 0.57 0.55 27.9 0 1 177.69 272.66"
/>
<path stroke="#838383" vector-effect="non-scaling-stroke" d="
  M 208.20 263.99
  Q 205.80 258.78 202.11 254.40
  A 0.70 0.69 56.9 0 0 201.28 254.22
  L 196.38 256.62
  A 0.58 0.58 0.0 0 0 196.52 257.71
  C 199.32 258.26 200.42 259.82 202.31 262.26
  C 204.87 265.57 206.51 268.46 205.89 272.97
  Q 205.82 273.48 205.33 273.63
  L 201.92 274.65
  A 0.55 0.55 0.0 0 0 202.07 275.72
  L 212.96 275.84
  A 0.52 0.52 0.0 0 0 213.20 274.85
  L 210.97 273.72
  Q 210.56 273.51 210.45 273.07
  C 209.67 269.97 209.67 267.61 211.43 264.69
  Q 213.65 261.00 215.59 257.15
  A 2.18 2.10 84.8 0 1 216.16 256.44
  Q 217.01 255.74 217.54 254.82
  Q 217.80 254.38 217.33 254.20
  Q 215.24 253.37 214.48 254.74
  Q 211.89 259.40 209.05 264.04
  A 0.48 0.48 0.0 0 1 208.20 263.99"
/>
<path stroke="#838383" vector-effect="non-scaling-stroke" d="
  M 228.96 273.67
  L 226.74 274.28
  A 0.77 0.77 0.0 0 0 226.93 275.80
  L 243.70 276.08
  A 0.75 0.75 0.0 0 0 244.05 274.66
  L 241.71 273.47
  Q 241.13 273.17 241.12 272.52
  L 241.04 266.12
  A 0.93 0.90 -24.4 0 1 241.30 265.46
  C 242.79 263.89 247.33 263.28 247.51 266.25
  Q 247.78 270.82 247.12 274.85
  Q 246.96 275.81 247.93 275.86
  Q 255.49 276.25 262.66 275.85
  Q 264.57 275.75 269.82 276.00
  Q 273.49 276.18 277.17 275.41
  A 0.31 0.31 0.0 0 0 277.20 274.82
  L 274.15 273.74
  A 0.83 0.82 -79.5 0 1 273.60 272.93
  L 273.85 266.32
  Q 273.87 265.81 274.39 265.81
  C 276.27 265.82 281.61 266.42 279.97 262.52
  A 0.79 0.79 0.0 0 0 278.95 262.10
  L 274.95 263.74
  A 0.50 0.48 -42.3 0 1 274.58 263.73
  Q 273.88 263.40 273.60 262.66
  Q 273.33 261.94 272.73 262.43
  C 268.59 265.84 266.13 262.18 262.17 261.68
  Q 261.69 261.62 261.61 261.16
  Q 260.72 256.03 265.43 255.63
  A 0.64 0.64 0.0 0 0 265.62 254.40
  C 261.99 252.88 258.60 258.36 257.82 261.14
  Q 257.69 261.61 257.29 261.89
  L 256.14 262.71
  A 0.45 0.45 0.0 0 0 256.17 263.46
  L 257.29 264.15
  Q 257.75 264.43 257.77 264.97
  L 258.04 273.21
  A 1.02 1.00 74.3 0 1 257.54 274.12
  Q 254.11 276.08 251.00 273.22
  Q 250.80 273.04 250.83 272.78
  C 251.26 268.40 252.13 264.69 249.38 262.29
  A 1.24 1.23 -24.1 0 0 248.56 261.98
  C 244.97 262.02 239.35 261.90 236.12 264.33
  A 0.59 0.59 0.0 0 0 236.10 265.25
  L 237.32 266.24
  A 1.06 1.06 0.0 0 1 237.70 267.03
  L 237.83 273.44
  Q 237.85 274.24 237.05 274.18
  L 233.43 273.90
  A 0.68 0.68 0.0 0 1 232.80 273.19
  L 233.25 262.82
  A 0.50 0.49 -9.8 0 0 232.56 262.34
  L 226.86 264.66
  A 0.53 0.53 0.0 0 0 226.97 265.67
  L 229.04 266.03
  A 0.52 0.51 -85.4 0 1 229.47 266.54
  L 229.46 273.02
  Q 229.46 273.53 228.96 273.67"
/>
<path stroke="#838383" vector-effect="non-scaling-stroke" d="
  M 342.73 262.61
  L 343.96 255.20
  A 0.97 0.97 0.0 0 0 342.61 254.16
  L 337.21 256.54
  A 0.65 0.65 0.0 0 0 337.37 257.78
  Q 339.79 258.17 339.69 260.25
  C 339.48 264.31 339.73 268.40 339.57 272.48
  A 2.24 2.23 -89.4 0 1 337.40 274.62
  Q 334.23 274.71 331.05 273.68
  C 326.99 272.35 326.38 268.25 328.03 264.81
  Q 328.20 264.46 328.56 264.32
  Q 332.80 262.69 333.78 266.47
  A 0.80 0.80 0.0 0 0 335.35 266.31
  L 335.50 263.42
  Q 335.53 262.71 334.86 262.51
  Q 330.57 261.24 327.19 263.16
  C 322.41 265.90 322.55 271.86 326.29 275.44
  A 1.43 1.40 -22.5 0 0 327.28 275.84
  L 346.00 275.93
  A 0.45 0.41 73.4 0 0 346.32 275.26
  Q 345.55 273.89 343.96 273.63
  Q 343.50 273.55 343.40 273.10
  Q 342.40 268.20 343.23 266.00
  C 344.33 263.09 349.06 263.62 349.64 266.36
  C 350.06 268.38 349.54 272.75 349.09 275.26
  Q 348.98 275.89 349.61 275.90
  L 355.08 276.01
  A 0.94 0.94 0.0 0 0 355.31 274.16
  L 353.30 273.67
  A 0.73 0.73 0.0 0 1 352.75 272.85
  C 353.24 269.44 354.47 265.19 351.45 262.41
  Q 351.12 262.11 350.67 262.05
  Q 346.76 261.56 343.17 262.97
  A 0.33 0.32 83.9 0 1 342.73 262.61"
/>
<path stroke="#838383" vector-effect="non-scaling-stroke" d="
  M 233.0510 256.4861
  A 2.20 1.60 13.3 0 0 231.2781 254.4229
  A 2.20 1.60 13.3 0 0 228.7690 255.4739
  A 2.20 1.60 13.3 0 0 230.5419 257.5371
  A 2.20 1.60 13.3 0 0 233.0510 256.4861"
/>
<path stroke="#838383" vector-effect="non-scaling-stroke" d="
  M 302.11 264.09
  L 305.20 263.71
  A 0.65 0.65 0.0 0 0 305.25 262.42
  L 301.98 261.76
  A 0.52 0.52 0.0 0 1 301.57 261.23
  L 301.78 256.99
  A 0.94 0.94 0.0 0 0 299.91 256.84
  L 299.45 261.02
  A 1.14 1.13 77.8 0 1 298.90 261.88
  L 297.59 262.65
  A 0.48 0.48 0.0 0 0 297.70 263.52
  C 299.32 263.98 299.68 264.67 299.54 266.37
  Q 299.17 270.89 299.94 275.48
  A 0.70 0.69 -5.7 0 0 300.65 276.06
  L 305.11 275.87
  A 0.75 0.75 0.0 0 0 305.16 274.37
  L 302.27 274.07
  Q 301.55 274.00 301.56 273.28
  L 301.62 264.64
  Q 301.62 264.15 302.11 264.09"
/>
<path stroke="#838383" vector-effect="non-scaling-stroke" d="
  M 288.99 267.82
  C 284.57 268.43 281.04 269.65 281.87 274.91
  A 0.86 0.85 -88.0 0 0 282.52 275.61
  C 286.36 276.49 291.41 276.09 295.40 275.95
  Q 296.15 275.93 296.01 275.19
  Q 295.70 273.66 294.07 273.73
  Q 293.42 273.76 293.44 273.11
  C 293.52 270.65 294.42 263.51 291.28 262.49
  Q 285.84 260.72 282.14 264.59
  A 0.69 0.69 0.0 0 0 283.02 265.64
  Q 286.17 263.52 289.41 265.06
  A 1.46 1.46 0.0 0 1 288.99 267.82"
/>
<path stroke="#838383" vector-effect="non-scaling-stroke" d="
  M 312.19 270.30
  L 320.46 269.90
  Q 320.97 269.88 321.00 269.37
  C 321.59 257.46 304.83 260.99 308.22 272.17
  C 309.71 277.09 316.34 276.52 320.19 275.70
  A 0.86 0.86 0.0 0 0 319.97 274.00
  C 317.38 274.12 311.80 274.58 311.68 270.85
  A 0.54 0.53 88.4 0 1 312.19 270.30"
/>
<path stroke="#838383" vector-effect="non-scaling-stroke" d="
  M 362.3154 273.3790
  A 1.31 1.31 0.0 0 0 361.0169 272.0576
  L 359.2970 272.0426
  A 1.31 1.31 0.0 0 0 357.9756 273.3411
  L 357.9646 274.6010
  A 1.31 1.31 0.0 0 0 359.2631 275.9224
  L 360.9830 275.9374
  A 1.31 1.31 0.0 0 0 362.3044 274.6389
  L 362.3154 273.3790"
/>
<path stroke="#838383" vector-effect="non-scaling-stroke" d="
  M 179.97 265.28
  A 0.33 0.33 0.0 0 0 180.25 265.76
  L 184.82 265.96
  A 0.33 0.33 0.0 0 0 185.14 265.52
  L 183.09 260.23
  A 0.33 0.33 0.0 0 0 182.49 260.20
  L 179.97 265.28"
/>
<path stroke="#838383" vector-effect="non-scaling-stroke" d="
  M 261.78 264.46
  L 261.82 274.76
  A 0.23 0.23 0.0 0 0 262.05 274.99
  L 265.87 274.98
  A 4.15 3.35 -0.2 0 0 270.01 271.62
  L 269.99 267.56
  A 4.15 3.35 -0.2 0 0 265.83 264.22
  L 262.01 264.23
  A 0.23 0.23 0.0 0 0 261.78 264.46"
/>
<path stroke="#838383" vector-effect="non-scaling-stroke" d="
  M 290.20 272.95
  L 289.77 270.46
  A 0.69 0.69 0.0 0 0 288.98 269.90
  L 288.57 269.97
  A 3.96 1.84 -9.7 0 0 284.98 272.45
  L 285.01 272.66
  A 3.96 1.84 -9.7 0 0 289.23 273.81
  L 289.63 273.74
  A 0.69 0.69 0.0 0 0 290.20 272.95"
/>
<path stroke="#838383" vector-effect="non-scaling-stroke" d="
  M 311.94 268.09
  L 316.96 267.91
  A 0.69 0.69 0.0 0 0 317.62 267.19
  L 317.62 267.07
  A 3.13 3.11 87.9 0 0 314.40 264.06
  L 314.22 264.06
  A 3.13 3.11 87.9 0 0 311.22 267.31
  L 311.23 267.43
  A 0.69 0.69 0.0 0 0 311.94 268.09"
/>
</g>
<path fill="#ffffff" d="
  M 0.00 0.00
  L 548.00 0.00
  L 548.00 328.00
  L 0.00 328.00
  L 0.00 0.00
  Z
  M 172.60 116.35
  Q 178.35 122.05 184.34 127.56
  C 187.66 130.61 190.73 131.32 195.00 131.35
  Q 229.38 131.61 263.75 131.26
  C 276.17 131.13 286.88 130.32 294.34 139.34
  C 299.10 145.08 298.32 152.81 293.16 158.04
  Q 286.61 164.67 276.01 164.72
  Q 248.63 164.84 221.15 164.76
  A 0.33 0.32 -15.8 0 0 220.87 165.25
  Q 223.59 169.56 227.84 172.20
  Q 230.11 173.61 231.40 175.16
  Q 242.10 187.99 254.73 198.89
  C 265.88 208.51 277.81 220.52 284.97 228.28
  Q 292.95 236.93 299.11 242.10
  C 302.30 244.78 305.81 246.05 309.75 246.05
  Q 333.67 246.05 357.95 246.01
  A 1.07 1.07 0.0 0 0 358.71 244.19
  L 349.48 234.80
  Q 349.10 234.40 348.56 234.27
  C 344.58 233.26 343.21 231.14 340.50 228.45
  Q 329.48 217.54 318.54 206.52
  C 315.64 203.60 310.23 199.44 306.80 194.88
  Q 306.44 194.40 306.96 194.10
  C 310.74 191.94 315.43 190.66 318.65 188.50
  C 325.07 184.22 332.79 178.17 335.93 170.91
  C 343.13 154.19 342.42 134.96 332.73 119.53
  C 331.47 117.53 328.88 116.47 327.21 114.53
  Q 319.50 105.51 308.32 101.64
  C 295.20 97.26 283.85 95.98 268.74 95.99
  Q 214.49 96.02 160.25 95.87
  Q 155.49 95.85 150.88 96.13
  A 0.39 0.39 0.0 0 0 150.66 96.83
  Q 152.52 98.33 154.21 100.12
  Q 155.95 101.96 157.86 103.24
  Q 166.08 108.70 172.60 116.35
  Z
  M 177.69 272.66
  L 179.16 268.32
  Q 179.37 267.70 180.02 267.75
  C 183.87 268.03 187.51 267.75 188.24 272.67
  Q 188.31 273.20 187.88 273.53
  L 186.00 274.94
  A 0.59 0.59 0.0 0 0 186.36 276.00
  L 195.52 275.94
  A 0.67 0.67 0.0 0 0 195.79 274.65
  L 193.68 273.69
  Q 193.16 273.46 192.94 272.93
  L 185.40 254.91
  A 1.56 1.56 0.0 0 0 182.51 254.93
  L 175.33 272.74
  A 2.19 2.19 0.0 0 1 171.50 273.16
  L 166.27 265.56
  Q 165.90 265.02 166.42 264.61
  C 168.66 262.89 170.98 260.51 170.55 257.54
  Q 170.06 254.16 165.76 253.99
  Q 160.01 253.77 153.35 254.16
  A 0.62 0.62 0.0 0 0 153.23 255.38
  L 155.23 255.90
  Q 155.85 256.06 155.86 256.71
  L 155.93 273.03
  Q 155.93 273.70 155.34 274.02
  L 153.99 274.75
  A 0.39 0.39 0.0 0 0 154.08 275.47
  Q 158.56 276.55 163.11 275.61
  A 0.43 0.42 50.1 0 0 163.18 274.80
  L 160.62 273.77
  A 0.68 0.66 11.1 0 1 160.19 273.15
  L 160.15 256.58
  Q 160.14 256.02 160.70 256.09
  L 165.19 256.67
  Q 165.90 256.76 166.00 257.46
  Q 166.85 262.96 161.82 264.53
  A 0.46 0.46 0.0 0 0 161.59 265.24
  Q 164.57 269.16 166.89 273.55
  C 167.76 275.19 168.68 275.97 170.50 275.95
  Q 174.94 275.90 179.34 276.02
  A 0.76 0.76 0.0 0 0 179.80 274.63
  L 177.90 273.30
  A 0.57 0.55 27.9 0 1 177.69 272.66
  Z
  M 208.20 263.99
  Q 205.80 258.78 202.11 254.40
  A 0.70 0.69 56.9 0 0 201.28 254.22
  L 196.38 256.62
  A 0.58 0.58 0.0 0 0 196.52 257.71
  C 199.32 258.26 200.42 259.82 202.31 262.26
  C 204.87 265.57 206.51 268.46 205.89 272.97
  Q 205.82 273.48 205.33 273.63
  L 201.92 274.65
  A 0.55 0.55 0.0 0 0 202.07 275.72
  L 212.96 275.84
  A 0.52 0.52 0.0 0 0 213.20 274.85
  L 210.97 273.72
  Q 210.56 273.51 210.45 273.07
  C 209.67 269.97 209.67 267.61 211.43 264.69
  Q 213.65 261.00 215.59 257.15
  A 2.18 2.10 84.8 0 1 216.16 256.44
  Q 217.01 255.74 217.54 254.82
  Q 217.80 254.38 217.33 254.20
  Q 215.24 253.37 214.48 254.74
  Q 211.89 259.40 209.05 264.04
  A 0.48 0.48 0.0 0 1 208.20 263.99
  Z
  M 228.96 273.67
  L 226.74 274.28
  A 0.77 0.77 0.0 0 0 226.93 275.80
  L 243.70 276.08
  A 0.75 0.75 0.0 0 0 244.05 274.66
  L 241.71 273.47
  Q 241.13 273.17 241.12 272.52
  L 241.04 266.12
  A 0.93 0.90 -24.4 0 1 241.30 265.46
  C 242.79 263.89 247.33 263.28 247.51 266.25
  Q 247.78 270.82 247.12 274.85
  Q 246.96 275.81 247.93 275.86
  Q 255.49 276.25 262.66 275.85
  Q 264.57 275.75 269.82 276.00
  Q 273.49 276.18 277.17 275.41
  A 0.31 0.31 0.0 0 0 277.20 274.82
  L 274.15 273.74
  A 0.83 0.82 -79.5 0 1 273.60 272.93
  L 273.85 266.32
  Q 273.87 265.81 274.39 265.81
  C 276.27 265.82 281.61 266.42 279.97 262.52
  A 0.79 0.79 0.0 0 0 278.95 262.10
  L 274.95 263.74
  A 0.50 0.48 -42.3 0 1 274.58 263.73
  Q 273.88 263.40 273.60 262.66
  Q 273.33 261.94 272.73 262.43
  C 268.59 265.84 266.13 262.18 262.17 261.68
  Q 261.69 261.62 261.61 261.16
  Q 260.72 256.03 265.43 255.63
  A 0.64 0.64 0.0 0 0 265.62 254.40
  C 261.99 252.88 258.60 258.36 257.82 261.14
  Q 257.69 261.61 257.29 261.89
  L 256.14 262.71
  A 0.45 0.45 0.0 0 0 256.17 263.46
  L 257.29 264.15
  Q 257.75 264.43 257.77 264.97
  L 258.04 273.21
  A 1.02 1.00 74.3 0 1 257.54 274.12
  Q 254.11 276.08 251.00 273.22
  Q 250.80 273.04 250.83 272.78
  C 251.26 268.40 252.13 264.69 249.38 262.29
  A 1.24 1.23 -24.1 0 0 248.56 261.98
  C 244.97 262.02 239.35 261.90 236.12 264.33
  A 0.59 0.59 0.0 0 0 236.10 265.25
  L 237.32 266.24
  A 1.06 1.06 0.0 0 1 237.70 267.03
  L 237.83 273.44
  Q 237.85 274.24 237.05 274.18
  L 233.43 273.90
  A 0.68 0.68 0.0 0 1 232.80 273.19
  L 233.25 262.82
  A 0.50 0.49 -9.8 0 0 232.56 262.34
  L 226.86 264.66
  A 0.53 0.53 0.0 0 0 226.97 265.67
  L 229.04 266.03
  A 0.52 0.51 -85.4 0 1 229.47 266.54
  L 229.46 273.02
  Q 229.46 273.53 228.96 273.67
  Z
  M 342.73 262.61
  L 343.96 255.20
  A 0.97 0.97 0.0 0 0 342.61 254.16
  L 337.21 256.54
  A 0.65 0.65 0.0 0 0 337.37 257.78
  Q 339.79 258.17 339.69 260.25
  C 339.48 264.31 339.73 268.40 339.57 272.48
  A 2.24 2.23 -89.4 0 1 337.40 274.62
  Q 334.23 274.71 331.05 273.68
  C 326.99 272.35 326.38 268.25 328.03 264.81
  Q 328.20 264.46 328.56 264.32
  Q 332.80 262.69 333.78 266.47
  A 0.80 0.80 0.0 0 0 335.35 266.31
  L 335.50 263.42
  Q 335.53 262.71 334.86 262.51
  Q 330.57 261.24 327.19 263.16
  C 322.41 265.90 322.55 271.86 326.29 275.44
  A 1.43 1.40 -22.5 0 0 327.28 275.84
  L 346.00 275.93
  A 0.45 0.41 73.4 0 0 346.32 275.26
  Q 345.55 273.89 343.96 273.63
  Q 343.50 273.55 343.40 273.10
  Q 342.40 268.20 343.23 266.00
  C 344.33 263.09 349.06 263.62 349.64 266.36
  C 350.06 268.38 349.54 272.75 349.09 275.26
  Q 348.98 275.89 349.61 275.90
  L 355.08 276.01
  A 0.94 0.94 0.0 0 0 355.31 274.16
  L 353.30 273.67
  A 0.73 0.73 0.0 0 1 352.75 272.85
  C 353.24 269.44 354.47 265.19 351.45 262.41
  Q 351.12 262.11 350.67 262.05
  Q 346.76 261.56 343.17 262.97
  A 0.33 0.32 83.9 0 1 342.73 262.61
  Z
  M 233.0510 256.4861
  A 2.20 1.60 13.3 0 0 231.2781 254.4229
  A 2.20 1.60 13.3 0 0 228.7690 255.4739
  A 2.20 1.60 13.3 0 0 230.5419 257.5371
  A 2.20 1.60 13.3 0 0 233.0510 256.4861
  Z
  M 302.11 264.09
  L 305.20 263.71
  A 0.65 0.65 0.0 0 0 305.25 262.42
  L 301.98 261.76
  A 0.52 0.52 0.0 0 1 301.57 261.23
  L 301.78 256.99
  A 0.94 0.94 0.0 0 0 299.91 256.84
  L 299.45 261.02
  A 1.14 1.13 77.8 0 1 298.90 261.88
  L 297.59 262.65
  A 0.48 0.48 0.0 0 0 297.70 263.52
  C 299.32 263.98 299.68 264.67 299.54 266.37
  Q 299.17 270.89 299.94 275.48
  A 0.70 0.69 -5.7 0 0 300.65 276.06
  L 305.11 275.87
  A 0.75 0.75 0.0 0 0 305.16 274.37
  L 302.27 274.07
  Q 301.55 274.00 301.56 273.28
  L 301.62 264.64
  Q 301.62 264.15 302.11 264.09
  Z
  M 288.99 267.82
  C 284.57 268.43 281.04 269.65 281.87 274.91
  A 0.86 0.85 -88.0 0 0 282.52 275.61
  C 286.36 276.49 291.41 276.09 295.40 275.95
  Q 296.15 275.93 296.01 275.19
  Q 295.70 273.66 294.07 273.73
  Q 293.42 273.76 293.44 273.11
  C 293.52 270.65 294.42 263.51 291.28 262.49
  Q 285.84 260.72 282.14 264.59
  A 0.69 0.69 0.0 0 0 283.02 265.64
  Q 286.17 263.52 289.41 265.06
  A 1.46 1.46 0.0 0 1 288.99 267.82
  Z
  M 312.19 270.30
  L 320.46 269.90
  Q 320.97 269.88 321.00 269.37
  C 321.59 257.46 304.83 260.99 308.22 272.17
  C 309.71 277.09 316.34 276.52 320.19 275.70
  A 0.86 0.86 0.0 0 0 319.97 274.00
  C 317.38 274.12 311.80 274.58 311.68 270.85
  A 0.54 0.53 88.4 0 1 312.19 270.30
  Z
  M 362.3154 273.3790
  A 1.31 1.31 0.0 0 0 361.0169 272.0576
  L 359.2970 272.0426
  A 1.31 1.31 0.0 0 0 357.9756 273.3411
  L 357.9646 274.6010
  A 1.31 1.31 0.0 0 0 359.2631 275.9224
  L 360.9830 275.9374
  A 1.31 1.31 0.0 0 0 362.3044 274.6389
  L 362.3154 273.3790
  Z"
/>
<path fill="#070607" d="
  M 308.32 101.64
  Q 307.53 103.13 305.47 101.90
  Q 305.05 101.64 304.55 101.64
  L 300.77 101.63
  Q 300.34 101.62 300.00 101.37
  C 296.07 98.43 290.82 99.43 285.82 98.96
  Q 285.74 98.96 279.23 97.97
  C 273.91 97.16 268.14 97.73 262.76 97.87
  Q 258.41 97.99 253.25 97.86
  C 230.44 97.28 210.29 98.36 190.10 97.81
  C 178.58 97.50 167.86 98.23 156.73 98.47
  A 0.69 0.69 0.0 0 0 156.40 99.76
  Q 160.74 102.27 164.30 104.89
  Q 165.90 106.07 167.83 108.69
  Q 170.04 111.68 173.11 113.88
  Q 173.45 114.12 173.56 114.53
  L 173.74 115.26
  Q 173.85 115.72 173.44 115.93
  L 172.60 116.35
  Q 166.08 108.70 157.86 103.24
  Q 155.95 101.96 154.21 100.12
  Q 152.52 98.33 150.66 96.83
  A 0.39 0.39 0.0 0 1 150.88 96.13
  Q 155.49 95.85 160.25 95.87
  Q 214.49 96.02 268.74 95.99
  C 283.85 95.98 295.20 97.26 308.32 101.64
  Z"
/>
<path fill="#29255e" d="
  M 308.32 101.64
  Q 319.50 105.51 327.21 114.53
  C 328.88 116.47 331.47 117.53 332.73 119.53
  C 342.42 134.96 343.13 154.19 335.93 170.91
  C 332.79 178.17 325.07 184.22 318.65 188.50
  C 315.43 190.66 310.74 191.94 306.96 194.10
  Q 306.44 194.40 306.80 194.88
  C 310.23 199.44 315.64 203.60 318.54 206.52
  Q 329.48 217.54 340.50 228.45
  C 343.21 231.14 344.58 233.26 348.56 234.27
  Q 349.10 234.40 349.48 234.80
  L 358.71 244.19
  A 1.07 1.07 0.0 0 1 357.95 246.01
  Q 333.67 246.05 309.75 246.05
  C 305.81 246.05 302.30 244.78 299.11 242.10
  Q 292.95 236.93 284.97 228.28
  C 277.81 220.52 265.88 208.51 254.73 198.89
  Q 242.10 187.99 231.40 175.16
  Q 230.11 173.61 227.84 172.20
  Q 223.59 169.56 220.87 165.25
  A 0.33 0.32 -15.8 0 1 221.15 164.76
  Q 248.63 164.84 276.01 164.72
  Q 286.61 164.67 293.16 158.04
  C 298.32 152.81 299.10 145.08 294.34 139.34
  C 286.88 130.32 276.17 131.13 263.75 131.26
  Q 229.38 131.61 195.00 131.35
  C 190.73 131.32 187.66 130.61 184.34 127.56
  Q 178.35 122.05 172.60 116.35
  L 173.44 115.93
  Q 173.85 115.72 173.74 115.26
  L 173.56 114.53
  Q 173.45 114.12 173.11 113.88
  Q 170.04 111.68 167.83 108.69
  Q 165.90 106.07 164.30 104.89
  Q 160.74 102.27 156.40 99.76
  A 0.69 0.69 0.0 0 1 156.73 98.47
  C 167.86 98.23 178.58 97.50 190.10 97.81
  C 210.29 98.36 230.44 97.28 253.25 97.86
  Q 258.41 97.99 262.76 97.87
  C 268.14 97.73 273.91 97.16 279.23 97.97
  Q 285.74 98.96 285.82 98.96
  C 290.82 99.43 296.07 98.43 300.00 101.37
  Q 300.34 101.62 300.77 101.63
  L 304.55 101.64
  Q 305.05 101.64 305.47 101.90
  Q 307.53 103.13 308.32 101.64
  Z"
/>
<path fill="#070607" d="
  M 177.90 273.30
  L 179.80 274.63
  A 0.76 0.76 0.0 0 1 179.34 276.02
  Q 174.94 275.90 170.50 275.95
  C 168.68 275.97 167.76 275.19 166.89 273.55
  Q 164.57 269.16 161.59 265.24
  A 0.46 0.46 0.0 0 1 161.82 264.53
  Q 166.85 262.96 166.00 257.46
  Q 165.90 256.76 165.19 256.67
  L 160.70 256.09
  Q 160.14 256.02 160.15 256.58
  L 160.19 273.15
  A 0.68 0.66 11.1 0 0 160.62 273.77
  L 163.18 274.80
  A 0.43 0.42 50.1 0 1 163.11 275.61
  Q 158.56 276.55 154.08 275.47
  A 0.39 0.39 0.0 0 1 153.99 274.75
  L 155.34 274.02
  Q 155.93 273.70 155.93 273.03
  L 155.86 256.71
  Q 155.85 256.06 155.23 255.90
  L 153.23 255.38
  A 0.62 0.62 0.0 0 1 153.35 254.16
  Q 160.01 253.77 165.76 253.99
  Q 170.06 254.16 170.55 257.54
  C 170.98 260.51 168.66 262.89 166.42 264.61
  Q 165.90 265.02 166.27 265.56
  L 171.50 273.16
  A 2.19 2.19 0.0 0 0 175.33 272.74
  L 182.51 254.93
  A 1.56 1.56 0.0 0 1 185.40 254.91
  L 192.94 272.93
  Q 193.16 273.46 193.68 273.69
  L 195.79 274.65
  A 0.67 0.67 0.0 0 1 195.52 275.94
  L 186.36 276.00
  A 0.59 0.59 0.0 0 1 186.00 274.94
  L 187.88 273.53
  Q 188.31 273.20 188.24 272.67
  C 187.51 267.75 183.87 268.03 180.02 267.75
  Q 179.37 267.70 179.16 268.32
  L 177.69 272.66
  A 0.57 0.55 27.9 0 0 177.90 273.30
  Z
  M 179.97 265.28
  A 0.33 0.33 0.0 0 0 180.25 265.76
  L 184.82 265.96
  A 0.33 0.33 0.0 0 0 185.14 265.52
  L 183.09 260.23
  A 0.33 0.33 0.0 0 0 182.49 260.20
  L 179.97 265.28
  Z"
/>
<path fill="#070607" d="
  M 208.20 263.99
  A 0.48 0.48 0.0 0 0 209.05 264.04
  Q 211.89 259.40 214.48 254.74
  Q 215.24 253.37 217.33 254.20
  Q 217.80 254.38 217.54 254.82
  Q 217.01 255.74 216.16 256.44
  A 2.18 2.10 84.8 0 0 215.59 257.15
  Q 213.65 261.00 211.43 264.69
  C 209.67 267.61 209.67 269.97 210.45 273.07
  Q 210.56 273.51 210.97 273.72
  L 213.20 274.85
  A 0.52 0.52 0.0 0 1 212.96 275.84
  L 202.07 275.72
  A 0.55 0.55 0.0 0 1 201.92 274.65
  L 205.33 273.63
  Q 205.82 273.48 205.89 272.97
  C 206.51 268.46 204.87 265.57 202.31 262.26
  C 200.42 259.82 199.32 258.26 196.52 257.71
  A 0.58 0.58 0.0 0 1 196.38 256.62
  L 201.28 254.22
  A 0.70 0.69 56.9 0 1 202.11 254.40
  Q 205.80 258.78 208.20 263.99
  Z"
/>
<path fill="#070607" d="
  M 229.46 273.02
  L 229.47 266.54
  A 0.52 0.51 -85.4 0 0 229.04 266.03
  L 226.97 265.67
  A 0.53 0.53 0.0 0 1 226.86 264.66
  L 232.56 262.34
  A 0.50 0.49 -9.8 0 1 233.25 262.82
  L 232.80 273.19
  A 0.68 0.68 0.0 0 0 233.43 273.90
  L 237.05 274.18
  Q 237.85 274.24 237.83 273.44
  L 237.70 267.03
  A 1.06 1.06 0.0 0 0 237.32 266.24
  L 236.10 265.25
  A 0.59 0.59 0.0 0 1 236.12 264.33
  C 239.35 261.90 244.97 262.02 248.56 261.98
  A 1.24 1.23 -24.1 0 1 249.38 262.29
  C 252.13 264.69 251.26 268.40 250.83 272.78
  Q 250.80 273.04 251.00 273.22
  Q 254.11 276.08 257.54 274.12
  A 1.02 1.00 74.3 0 0 258.04 273.21
  L 257.77 264.97
  Q 257.75 264.43 257.29 264.15
  L 256.17 263.46
  A 0.45 0.45 0.0 0 1 256.14 262.71
  L 257.29 261.89
  Q 257.69 261.61 257.82 261.14
  C 258.60 258.36 261.99 252.88 265.62 254.40
  A 0.64 0.64 0.0 0 1 265.43 255.63
  Q 260.72 256.03 261.61 261.16
  Q 261.69 261.62 262.17 261.68
  C 266.13 262.18 268.59 265.84 272.73 262.43
  Q 273.33 261.94 273.60 262.66
  Q 273.88 263.40 274.58 263.73
  A 0.50 0.48 -42.3 0 0 274.95 263.74
  L 278.95 262.10
  A 0.79 0.79 0.0 0 1 279.97 262.52
  C 281.61 266.42 276.27 265.82 274.39 265.81
  Q 273.87 265.81 273.85 266.32
  L 273.60 272.93
  A 0.83 0.82 -79.5 0 0 274.15 273.74
  L 277.20 274.82
  A 0.31 0.31 0.0 0 1 277.17 275.41
  Q 273.49 276.18 269.82 276.00
  Q 264.57 275.75 262.66 275.85
  Q 255.49 276.25 247.93 275.86
  Q 246.96 275.81 247.12 274.85
  Q 247.78 270.82 247.51 266.25
  C 247.33 263.28 242.79 263.89 241.30 265.46
  A 0.93 0.90 -24.4 0 0 241.04 266.12
  L 241.12 272.52
  Q 241.13 273.17 241.71 273.47
  L 244.05 274.66
  A 0.75 0.75 0.0 0 1 243.70 276.08
  L 226.93 275.80
  A 0.77 0.77 0.0 0 1 226.74 274.28
  L 228.96 273.67
  Q 229.46 273.53 229.46 273.02
  Z
  M 261.78 264.46
  L 261.82 274.76
  A 0.23 0.23 0.0 0 0 262.05 274.99
  L 265.87 274.98
  A 4.15 3.35 -0.2 0 0 270.01 271.62
  L 269.99 267.56
  A 4.15 3.35 -0.2 0 0 265.83 264.22
  L 262.01 264.23
  A 0.23 0.23 0.0 0 0 261.78 264.46
  Z"
/>
<path fill="#070607" d="
  M 343.17 262.97
  Q 346.76 261.56 350.67 262.05
  Q 351.12 262.11 351.45 262.41
  C 354.47 265.19 353.24 269.44 352.75 272.85
  A 0.73 0.73 0.0 0 0 353.30 273.67
  L 355.31 274.16
  A 0.94 0.94 0.0 0 1 355.08 276.01
  L 349.61 275.90
  Q 348.98 275.89 349.09 275.26
  C 349.54 272.75 350.06 268.38 349.64 266.36
  C 349.06 263.62 344.33 263.09 343.23 266.00
  Q 342.40 268.20 343.40 273.10
  Q 343.50 273.55 343.96 273.63
  Q 345.55 273.89 346.32 275.26
  A 0.45 0.41 73.4 0 1 346.00 275.93
  L 327.28 275.84
  A 1.43 1.40 -22.5 0 1 326.29 275.44
  C 322.55 271.86 322.41 265.90 327.19 263.16
  Q 330.57 261.24 334.86 262.51
  Q 335.53 262.71 335.50 263.42
  L 335.35 266.31
  A 0.80 0.80 0.0 0 1 333.78 266.47
  Q 332.80 262.69 328.56 264.32
  Q 328.20 264.46 328.03 264.81
  C 326.38 268.25 326.99 272.35 331.05 273.68
  Q 334.23 274.71 337.40 274.62
  A 2.24 2.23 -89.4 0 0 339.57 272.48
  C 339.73 268.40 339.48 264.31 339.69 260.25
  Q 339.79 258.17 337.37 257.78
  A 0.65 0.65 0.0 0 1 337.21 256.54
  L 342.61 254.16
  A 0.97 0.97 0.0 0 1 343.96 255.20
  L 342.73 262.61
  A 0.33 0.32 83.9 0 0 343.17 262.97
  Z"
/>
<ellipse fill="#070607" cx="0.00" cy="0.00" transform="translate(230.91,255.98) rotate(13.3)" rx="2.20" ry="1.60"/>
<path fill="#070607" d="
  M 301.62 264.64
  L 301.56 273.28
  Q 301.55 274.00 302.27 274.07
  L 305.16 274.37
  A 0.75 0.75 0.0 0 1 305.11 275.87
  L 300.65 276.06
  A 0.70 0.69 -5.7 0 1 299.94 275.48
  Q 299.17 270.89 299.54 266.37
  C 299.68 264.67 299.32 263.98 297.70 263.52
  A 0.48 0.48 0.0 0 1 297.59 262.65
  L 298.90 261.88
  A 1.14 1.13 77.8 0 0 299.45 261.02
  L 299.91 256.84
  A 0.94 0.94 0.0 0 1 301.78 256.99
  L 301.57 261.23
  A 0.52 0.52 0.0 0 0 301.98 261.76
  L 305.25 262.42
  A 0.65 0.65 0.0 0 1 305.20 263.71
  L 302.11 264.09
  Q 301.62 264.15 301.62 264.64
  Z"
/>
<path fill="#ffffff" d="
  M 179.97 265.28
  L 182.49 260.20
  A 0.33 0.33 0.0 0 1 183.09 260.23
  L 185.14 265.52
  A 0.33 0.33 0.0 0 1 184.82 265.96
  L 180.25 265.76
  A 0.33 0.33 0.0 0 1 179.97 265.28
  Z"
/>
<path fill="#070607" d="
  M 288.99 267.82
  A 1.46 1.46 0.0 0 0 289.41 265.06
  Q 286.17 263.52 283.02 265.64
  A 0.69 0.69 0.0 0 1 282.14 264.59
  Q 285.84 260.72 291.28 262.49
  C 294.42 263.51 293.52 270.65 293.44 273.11
  Q 293.42 273.76 294.07 273.73
  Q 295.70 273.66 296.01 275.19
  Q 296.15 275.93 295.40 275.95
  C 291.41 276.09 286.36 276.49 282.52 275.61
  A 0.86 0.85 -88.0 0 1 281.87 274.91
  C 281.04 269.65 284.57 268.43 288.99 267.82
  Z
  M 290.20 272.95
  L 289.77 270.46
  A 0.69 0.69 0.0 0 0 288.98 269.90
  L 288.57 269.97
  A 3.96 1.84 -9.7 0 0 284.98 272.45
  L 285.01 272.66
  A 3.96 1.84 -9.7 0 0 289.23 273.81
  L 289.63 273.74
  A 0.69 0.69 0.0 0 0 290.20 272.95
  Z"
/>
<path fill="#070607" d="
  M 311.68 270.85
  C 311.80 274.58 317.38 274.12 319.97 274.00
  A 0.86 0.86 0.0 0 1 320.19 275.70
  C 316.34 276.52 309.71 277.09 308.22 272.17
  C 304.83 260.99 321.59 257.46 321.00 269.37
  Q 320.97 269.88 320.46 269.90
  L 312.19 270.30
  A 0.54 0.53 88.4 0 0 311.68 270.85
  Z
  M 311.94 268.09
  L 316.96 267.91
  A 0.69 0.69 0.0 0 0 317.62 267.19
  L 317.62 267.07
  A 3.13 3.11 87.9 0 0 314.40 264.06
  L 314.22 264.06
  A 3.13 3.11 87.9 0 0 311.22 267.31
  L 311.23 267.43
  A 0.69 0.69 0.0 0 0 311.94 268.09
  Z"
/>
<path fill="#ffffff" d="
  M 261.78 264.46
  A 0.23 0.23 0.0 0 1 262.01 264.23
  L 265.83 264.22
  A 4.15 3.35 -0.2 0 1 269.99 267.56
  L 270.01 271.62
  A 4.15 3.35 -0.2 0 1 265.87 274.98
  L 262.05 274.99
  A 0.23 0.23 0.0 0 1 261.82 274.76
  L 261.78 264.46
  Z"
/>
<path fill="#ffffff" d="
  M 311.94 268.09
  A 0.69 0.69 0.0 0 1 311.23 267.43
  L 311.22 267.31
  A 3.13 3.11 87.9 0 1 314.22 264.06
  L 314.40 264.06
  A 3.13 3.11 87.9 0 1 317.62 267.07
  L 317.62 267.19
  A 0.69 0.69 0.0 0 1 316.96 267.91
  L 311.94 268.09
  Z"
/>
<path fill="#ffffff" d="
  M 290.20 272.95
  A 0.69 0.69 0.0 0 1 289.63 273.74
  L 289.23 273.81
  A 3.96 1.84 -9.7 0 1 285.01 272.66
  L 284.98 272.45
  A 3.96 1.84 -9.7 0 1 288.57 269.97
  L 288.98 269.90
  A 0.69 0.69 0.0 0 1 289.77 270.46
  L 290.20 272.95
  Z"
/>
<rect fill="#070607" x="-2.17" y="-1.94" transform="translate(360.14,273.99) rotate(0.5)" width="4.34" height="3.88" rx="1.31"/>
</svg>
